999
dxfrw 0.5.10
0
SECTION
2
HEADER
9
$ACADVER
1
AC1021
9
$HANDSEED
5
20000
9
$DWGCODEPAGE
3
ANSI_1252
9
$INSBASE
10
0
20
0
30
0
9
$EXTMIN
10
0
20
0
30
0
9
$EXTMAX
10
4384.95754856
20
10519.9818427
30
0
9
$LIMMIN
10
0
20
0
9
$LIMMAX
10
420
20
297
9
$ORTHOMODE
70
0
9
$LTSCALE
40
1
9
$TEXTSTYLE
7
STANDARD
9
$CLAYER
8
construction
9
$DIMASZ
40
25
9
$DIMLFAC
40
1
9
$DIMSCALE
40
1
9
$DIMEXO
40
0.625
9
$DIMEXE
40
1.25
9
$DIMTXT
40
25
9
$DIMTSZ
40
0
9
$DIMAUNIT
70
0
9
$DIMADEC
70
2
9
$DIMLUNIT
70
2
9
$DIMSTYLE
2
Standard
9
$DIMGAP
40
6.25
9
$DIMTIH
70
0
9
$LUNITS
70
2
9
$LUPREC
70
4
9
$AUNITS
70
0
9
$AUPREC
70
2
9
$SPLINESEGS
70
8
9
$GRIDMODE
70
1
9
$SNAPSTYLE
70
0
9
$GRIDUNIT
10
0
20
0
9
$PINSBASE
10
0
20
0
30
0
9
$PLIMMIN
10
0
20
0
9
$PLIMMAX
10
210
20
297
9
$INSUNITS
70
4
9
$PSVPSCALE
40
1
0
ENDSEC
0
SECTION
2
CLASSES
0
ENDSEC
0
SECTION
2
TABLES
0
TABLE
2
VPORT
5
8
330
0
100
AcDbSymbolTable
70
1
0
VPORT
5
31
330
2
100
AcDbSymbolTableRecord
100
AcDbViewportTableRecord
2
*ACTIVE
70
0
10
0
20
0
11
1
21
1
12
2626.81998743
22
2904.09543055
13
0
23
0
14
10
24
10
15
10
25
10
16
0
26
0
36
1
17
0
27
0
37
0
40
7150.78774356
41
1.88979591837
42
50
43
0
44
0
50
0
51
0
71
0
72
100
73
1
74
3
75
0
76
1
77
0
78
0
281
0
65
1
110
0
120
0
130
0
111
1
121
0
131
0
112
0
122
1
132
0
79
0
146
0
348
10020
60
7
61
5
292
1
282
1
141
0
142
0
63
250
421
3358443
0
ENDTAB
0
TABLE
2
LTYPE
5
5
330
0
100
AcDbSymbolTable
70
4
0
LTYPE
5
14
330
5
100
AcDbSymbolTableRecord
100
AcDbLinetypeTableRecord
2
ByBlock
70
0
3

72
65
73
0
40
0
0
LTYPE
5
15
330
5
100
AcDbSymbolTableRecord
100
AcDbLinetypeTableRecord
2
ByLayer
70
0
3

72
65
73
0
40
0
0
LTYPE
5
16
330
5
100
AcDbSymbolTableRecord
100
AcDbLinetypeTableRecord
2
Continuous
70
0
3
Solid line
72
65
73
0
40
0
0
LTYPE
5
32
330
5
100
AcDbSymbolTableRecord
100
AcDbLinetypeTableRecord
2
DOT
70
0
3
Dot . . . . . . . . . . . . . . . . . . . . . .
72
65
73
2
40
6.35
49
0
74
0
49
-6.35
74
0
0
LTYPE
5
33
330
5
100
AcDbSymbolTableRecord
100
AcDbLinetypeTableRecord
2
DOT2
70
0
3
Dot (.5x) .....................................
72
65
73
2
40
3.175
49
0
74
0
49
-3.175
74
0
0
LTYPE
5
34
330
5
100
AcDbSymbolTableRecord
100
AcDbLinetypeTableRecord
2
DOTX2
70
0
3
Dot (2x) .  .  .  .  .  .  .  .  .  .  .  .  .
72
65
73
2
40
12.7
49
0
74
0
49
-12.7
74
0
0
LTYPE
5
35
330
5
100
AcDbSymbolTableRecord
100
AcDbLinetypeTableRecord
2
DASHED
70
0
3
Dot . . . . . . . . . . . . . . . . . . . . . .
72
65
73
2
40
19.05
49
12.7
74
0
49
-6.35
74
0
0
LTYPE
5
36
330
5
100
AcDbSymbolTableRecord
100
AcDbLinetypeTableRecord
2
DASHED2
70
0
3
Dashed (.5x) _ _ _ _ _ _ _ _ _ _ _ _ _ _ _ _ _
72
65
73
2
40
9.525
49
6.35
74
0
49
-3.175
74
0
0
LTYPE
5
37
330
5
100
AcDbSymbolTableRecord
100
AcDbLinetypeTableRecord
2
DASHEDX2
70
0
3
Dashed (2x) ____  ____  ____  ____  ____  ___
72
65
73
2
40
38.1
49
25.4
74
0
49
-12.7
74
0
0
LTYPE
5
38
330
5
100
AcDbSymbolTableRecord
100
AcDbLinetypeTableRecord
2
DASHDOT
70
0
3
Dash dot __ . __ . __ . __ . __ . __ . __ . __
72
65
73
4
40
25.4
49
12.7
74
0
49
-6.35
74
0
49
0
74
0
49
-6.35
74
0
0
LTYPE
5
39
330
5
100
AcDbSymbolTableRecord
100
AcDbLinetypeTableRecord
2
DASHDOT2
70
0
3
Dash dot (.5x) _._._._._._._._._._._._._._._.
72
65
73
4
40
12.7
49
6.35
74
0
49
-3.175
74
0
49
0
74
0
49
-3.175
74
0
0
LTYPE
5
3A
330
5
100
AcDbSymbolTableRecord
100
AcDbLinetypeTableRecord
2
DASHDOTX2
70
0
3
Dash dot (2x) ____  .  ____  .  ____  .  ___
72
65
73
4
40
50.8
49
25.4
74
0
49
-12.7
74
0
49
0
74
0
49
-12.7
74
0
0
LTYPE
5
3B
330
5
100
AcDbSymbolTableRecord
100
AcDbLinetypeTableRecord
2
DIVIDE
70
0
3
Divide ____ . . ____ . . ____ . . ____ . . ____
72
65
73
6
40
31.75
49
12.7
74
0
49
-6.35
74
0
49
0
74
0
49
-6.35
74
0
49
0
74
0
49
-6.35
74
0
0
LTYPE
5
3C
330
5
100
AcDbSymbolTableRecord
100
AcDbLinetypeTableRecord
2
DIVIDE2
70
0
3
Divide (.5x) __..__..__..__..__..__..__..__.._
72
65
73
6
40
15.875
49
6.35
74
0
49
-3.175
74
0
49
0
74
0
49
-3.175
74
0
49
0
74
0
49
-3.175
74
0
0
LTYPE
5
3D
330
5
100
AcDbSymbolTableRecord
100
AcDbLinetypeTableRecord
2
DIVIDEX2
70
0
3
Divide (2x) ________  .  .  ________  .  .  _
72
65
73
6
40
63.5
49
25.4
74
0
49
-12.7
74
0
49
0
74
0
49
-12.7
74
0
49
0
74
0
49
-12.7
74
0
0
LTYPE
5
3E
330
5
100
AcDbSymbolTableRecord
100
AcDbLinetypeTableRecord
2
BORDER
70
0
3
Border __ __ . __ __ . __ __ . __ __ . __ __ .
72
65
73
6
40
44.45
49
12.7
74
0
49
-6.35
74
0
49
12.7
74
0
49
-6.35
74
0
49
0
74
0
49
-6.35
74
0
0
LTYPE
5
3F
330
5
100
AcDbSymbolTableRecord
100
AcDbLinetypeTableRecord
2
BORDER2
70
0
3
Border (.5x) __.__.__.__.__.__.__.__.__.__.__.
72
65
73
6
40
22.225
49
6.35
74
0
49
-3.175
74
0
49
6.35
74
0
49
-3.175
74
0
49
0
74
0
49
-3.175
74
0
0
LTYPE
5
40
330
5
100
AcDbSymbolTableRecord
100
AcDbLinetypeTableRecord
2
BORDERX2
70
0
3
Border (2x) ____  ____  .  ____  ____  .  ___
72
65
73
6
40
88.9
49
25.4
74
0
49
-12.7
74
0
49
25.4
74
0
49
-12.7
74
0
49
0
74
0
49
-12.7
74
0
0
LTYPE
5
41
330
5
100
AcDbSymbolTableRecord
100
AcDbLinetypeTableRecord
2
CENTER
70
0
3
Center ____ _ ____ _ ____ _ ____ _ ____ _ ____
72
65
73
4
40
50.8
49
31.75
74
0
49
-6.35
74
0
49
6.35
74
0
49
-6.35
74
0
0
LTYPE
5
42
330
5
100
AcDbSymbolTableRecord
100
AcDbLinetypeTableRecord
2
CENTER2
70
0
3
Center (.5x) ___ _ ___ _ ___ _ ___ _ ___ _ ___
72
65
73
4
40
28.575
49
19.05
74
0
49
-3.175
74
0
49
3.175
74
0
49
-3.175
74
0
0
LTYPE
5
43
330
5
100
AcDbSymbolTableRecord
100
AcDbLinetypeTableRecord
2
CENTERX2
70
0
3
Center (2x) ________  __  ________  __  _____
72
65
73
4
40
101.6
49
63.5
74
0
49
-12.7
74
0
49
12.7
74
0
49
-12.7
74
0
0
ENDTAB
0
TABLE
2
LAYER
5
2
330
0
100
AcDbSymbolTable
70
1
0
LAYER
5
10
330
2
100
AcDbSymbolTableRecord
100
AcDbLayerTableRecord
2
0
70
0
62
7
6
CONTINUOUS
370
0
390
F
0
LAYER
5
44
330
2
100
AcDbSymbolTableRecord
100
AcDbLayerTableRecord
2
roough sketches
70
5
62
3
6
CONTINUOUS
370
30
390
F
0
LAYER
5
45
330
2
100
AcDbSymbolTableRecord
100
AcDbLayerTableRecord
2
furniture
70
0
62
7
6
CONTINUOUS
370
0
390
F
0
LAYER
5
46
330
2
100
AcDbSymbolTableRecord
100
AcDbLayerTableRecord
2
construction
70
1
62
2
6
CONTINUOUS
370
0
390
F
0
LAYER
5
47
330
2
100
AcDbSymbolTableRecord
100
AcDbLayerTableRecord
2
Door
70
0
62
5
6
CONTINUOUS
370
0
390
F
0
LAYER
5
48
330
2
100
AcDbSymbolTableRecord
100
AcDbLayerTableRecord
2
dimensions
70
0
62
5
6
CONTINUOUS
370
0
390
F
0
ENDTAB
0
TABLE
2
STYLE
5
3
330
0
100
AcDbSymbolTable
70
3
0
STYLE
5
49
330
2
100
AcDbSymbolTableRecord
100
AcDbTextStyleTableRecord
2
STANDARD
70
0
40
0
41
1
50
0
71
0
42
1
3
STANDARD
4

0
ENDTAB
0
TABLE
2
VIEW
5
6
330
0
100
AcDbSymbolTable
70
0
0
ENDTAB
0
TABLE
2
UCS
5
7
330
0
100
AcDbSymbolTable
70
0
0
ENDTAB
0
TABLE
2
APPID
5
9
330
0
100
AcDbSymbolTable
70
1
0
APPID
5
12
330
9
100
AcDbSymbolTableRecord
100
AcDbRegAppTableRecord
2
ACAD
70
0
0
ENDTAB
0
TABLE
2
DIMSTYLE
5
A
330
0
100
AcDbSymbolTable
70
1
100
AcDbDimStyleTable
71
1
0
DIMSTYLE
105
4A
330
A
100
AcDbSymbolTableRecord
100
AcDbDimStyleTableRecord
2
Standard
70
0
40
1
41
25
42
0.625
43
0.38
44
1.25
45
0
46
0
47
0
48
0
140
25
141
0.09
142
0
143
25.4
144
1
145
0
146
1
147
6.25
148
0
71
0
72
0
73
0
74
1
75
0
76
0
77
0
78
0
79
0
170
0
171
2
172
0
173
0
174
0
175
0
176
0
177
0
178
0
179
0
271
4
272
4
273
2
274
2
275
0
276
0
277
2
278
46
279
0
280
0
281
0
282
0
283
1
284
0
285
0
286
0
288
0
289
3
340
Standard
341

371
-2
372
-2
0
ENDTAB
0
TABLE
2
BLOCK_RECORD
5
1
330
0
100
AcDbSymbolTable
70
2
0
BLOCK_RECORD
5
1F
330
1
100
AcDbSymbolTableRecord
100
AcDbBlockTableRecord
2
*Model_Space
70
0
280
1
281
0
0
BLOCK_RECORD
5
1E
330
1
100
AcDbSymbolTableRecord
100
AcDbBlockTableRecord
2
*Paper_Space
70
0
280
1
281
0
0
BLOCK_RECORD
5
4B
330
1
100
AcDbSymbolTableRecord
100
AcDbBlockTableRecord
2
*D2
70
0
280
1
281
0
0
BLOCK_RECORD
5
4E
330
1
100
AcDbSymbolTableRecord
100
AcDbBlockTableRecord
2
*D1
70
0
280
1
281
0
0
BLOCK_RECORD
5
51
330
1
100
AcDbSymbolTableRecord
100
AcDbBlockTableRecord
2
Elevation
70
0
280
1
281
0
0
BLOCK_RECORD
5
54
330
1
100
AcDbSymbolTableRecord
100
AcDbBlockTableRecord
2
Level 1
70
0
280
1
281
0
0
BLOCK_RECORD
5
57
330
1
100
AcDbSymbolTableRecord
100
AcDbBlockTableRecord
2
Level 0
70
0
280
1
281
0
0
ENDTAB
0
ENDSEC
0
SECTION
2
BLOCKS
0
BLOCK
5
20
330
1F
100
AcDbEntity
8
0
100
AcDbBlockBegin
2
*Model_Space
70
0
10
0
20
0
30
0
3
*Model_Space
1

0
ENDBLK
5
21
330
1F
100
AcDbEntity
8
0
100
AcDbBlockEnd
0
BLOCK
5
1C
330
1B
100
AcDbEntity
8
0
100
AcDbBlockBegin
2
*Paper_Space
70
0
10
0
20
0
30
0
3
*Paper_Space
1

0
ENDBLK
5
1D
330
1F
100
AcDbEntity
8
0
100
AcDbBlockEnd
0
BLOCK
5
4C
330
4B
100
AcDbEntity
8
0
100
AcDbBlockBegin
2
*D2
70
1
10
0
20
0
3
*D2
1

0
LINE
5
5A
100
AcDbEntity
8
dimensions
6
CONTINUOUS
62
7
370
0
100
AcDbLine
10
4.54747350886e-13
20
6612.58151503
11
1397.70990696
21
6612.58151503
0
SOLID
5
5B
100
AcDbEntity
8
dimensions
6
CONTINUOUS
62
7
370
0
100
AcDbTrace
10
4.54747350886e-13
20
6612.58151503
30
0
11
25
21
6616.7443616
31
0
12
25
22
6608.41866845
32
0
13
25
23
6608.41866845
33
0
0
SOLID
5
5C
100
AcDbEntity
8
dimensions
6
CONTINUOUS
62
7
370
0
100
AcDbTrace
10
1397.70990696
20
6612.58151503
30
0
11
1372.70990696
21
6608.41866845
31
0
12
1372.70990696
22
6616.7443616
32
0
13
1372.70990696
23
6616.7443616
33
0
0
MTEXT
5
5D
100
AcDbEntity
8
dimensions
6
CONTINUOUS
62
7
370
0
100
AcDbMText
10
698.854953482
20
6631.33151503
30
0
40
25
41
150
71
5
72
1
1
1397.7099
7
standard
210
0
220
0
230
1
50
0
73
2
44
1
0
LINE
5
5E
100
AcDbEntity
8
dimensions
6
CONTINUOUS
62
7
370
0
100
AcDbLine
10
3.01767175286e-13
20
6840.41630956
11
4.55627952636e-13
21
6611.33151503
0
LINE
5
5F
100
AcDbEntity
8
dimensions
6
CONTINUOUS
62
7
370
0
100
AcDbLine
10
1397.70990696
20
6840.41630956
11
1397.70990696
21
6611.33151503
0
ENDBLK
5
4D
330
4B
100
AcDbEntity
8
0
100
AcDbBlockEnd
0
BLOCK
5
4F
330
4E
100
AcDbEntity
8
0
100
AcDbBlockBegin
2
*D1
70
1
10
0
20
0
3
*D1
1

0
LINE
5
60
100
AcDbEntity
8
construction
6
CONTINUOUS
62
7
370
0
100
AcDbLine
10
717.916341147
20
-50.9261726388
11
617.916341147
21
-50.9261726388
0
SOLID
5
61
100
AcDbEntity
8
construction
6
CONTINUOUS
62
7
370
0
100
AcDbTrace
10
667.916341147
20
-50.9261726388
30
0
11
642.916341147
21
-55.0890192165
31
0
12
642.916341147
22
-46.7633260611
32
0
13
642.916341147
23
-46.7633260611
33
0
0
SOLID
5
62
100
AcDbEntity
8
construction
6
CONTINUOUS
62
7
370
0
100
AcDbTrace
10
667.916341147
20
-50.9261726388
30
0
11
642.916341147
21
-55.0890192165
31
0
12
642.916341147
22
-46.7633260611
32
0
13
642.916341147
23
-46.7633260611
33
0
0
MTEXT
5
63
100
AcDbEntity
8
construction
6
CONTINUOUS
62
7
370
0
100
AcDbMText
10
679.721896703
20
-32.1761726388
30
0
40
25
41
11.1111111111
71
5
72
1
1
0
7
standard
210
0
220
0
230
1
50
360
73
2
44
1
0
LINE
5
64
100
AcDbEntity
8
construction
6
CONTINUOUS
62
7
370
0
100
AcDbLine
10
667.916341147
20
-50.3011726388
11
667.916341147
21
-49.6761726388
0
LINE
5
65
100
AcDbEntity
8
construction
6
CONTINUOUS
62
7
370
0
100
AcDbLine
10
667.916341147
20
-50.3011726388
11
667.916341147
21
-49.6761726388
0
ENDBLK
5
50
330
4E
100
AcDbEntity
8
0
100
AcDbBlockEnd
0
BLOCK
5
52
330
51
100
AcDbEntity
8
0
100
AcDbBlockBegin
2
Elevation
70
0
10
0
20
0
3
Elevation
1

0
LINE
5
66
100
AcDbEntity
8
0
6
ByLayer
62
256
370
-1
100
AcDbLine
10
0
20
0
11
4200
21
0
0
LINE
5
67
100
AcDbEntity
8
0
6
ByLayer
62
256
370
-1
100
AcDbLine
10
0
20
0
11
4200
21
0
0
LINE
5
68
100
AcDbEntity
8
0
6
ByLayer
62
256
370
-1
100
AcDbLine
10
4200
20
0
11
4200
21
1830
0
LINE
5
69
100
AcDbEntity
8
0
6
ByLayer
62
256
370
-1
100
AcDbLine
10
4200
20
0
11
4200
21
1920
0
LINE
5
6A
100
AcDbEntity
8
0
6
ByLayer
62
256
370
-1
100
AcDbLine
10
0
20
0
11
0
21
1920
0
LINE
5
6B
100
AcDbEntity
8
0
6
ByLayer
62
256
370
-1
100
AcDbLine
10
0
20
1920
11
4200
21
1920
0
LINE
5
6C
100
AcDbEntity
8
0
6
DASHED
62
256
370
-1
100
AcDbLine
10
0
20
1830
11
4200
21
1830
0
LINE
5
6D
100
AcDbEntity
8
0
6
ByLayer
62
256
370
-1
100
AcDbLine
10
0
20
1920
11
0
21
0
0
LINE
5
6E
100
AcDbEntity
8
0
6
ByLayer
62
256
370
-1
100
AcDbLine
10
0
20
0
11
4200
21
0
0
LINE
5
6F
100
AcDbEntity
8
0
6
ByLayer
62
256
370
-1
100
AcDbLine
10
4200
20
0
11
4200
21
1920
0
LINE
5
70
100
AcDbEntity
8
0
6
ByLayer
62
256
370
-1
100
AcDbLine
10
4200
20
1920
11
0
21
1920
0
LINE
5
71
100
AcDbEntity
8
furniture
6
ByLayer
62
256
370
-1
100
AcDbLine
10
0
20
0
11
0
21
890
0
LINE
5
72
100
AcDbEntity
8
furniture
6
ByLayer
62
256
370
-1
100
AcDbLine
10
0
20
890
11
0
21
1340
0
LINE
5
73
100
AcDbEntity
8
construction
6
ByLayer
62
256
370
-1
100
AcDbLine
10
2300
20
890
11
2300
21
590
0
LINE
5
74
100
AcDbEntity
8
construction
6
ByLayer
62
256
370
-1
100
AcDbLine
10
2300
20
590
11
4200
21
590
0
LINE
5
75
100
AcDbEntity
8
furniture
6
ByLayer
62
256
370
-1
100
AcDbLine
10
4200
20
590
11
2300
21
590
0
LINE
5
76
100
AcDbEntity
8
furniture
6
ByLayer
62
256
370
-1
100
AcDbLine
10
2300
20
590
11
2300
21
890
0
LINE
5
77
100
AcDbEntity
8
furniture
6
ByLayer
62
256
370
-1
100
AcDbLine
10
2300
20
890
11
4200
21
890
0
LINE
5
78
100
AcDbEntity
8
furniture
6
ByLayer
62
256
370
-1
100
AcDbLine
10
0
20
890
11
2300
21
890
0
LINE
5
79
100
AcDbEntity
8
furniture
6
ByLayer
62
256
370
-1
100
AcDbLine
10
2300
20
1340
11
2300
21
1920
0
LINE
5
7A
100
AcDbEntity
8
furniture
6
ByLayer
62
256
370
-1
100
AcDbLine
10
2300
20
890
11
2300
21
0
0
LINE
5
7B
100
AcDbEntity
8
construction
6
ByLayer
62
256
370
-1
100
AcDbLine
10
0
20
890
11
930
21
890
0
LINE
5
7C
100
AcDbEntity
8
construction
6
ByLayer
62
256
370
-1
100
AcDbLine
10
930
20
-4110
11
930
21
5890
0
LINE
5
7D
100
AcDbEntity
8
construction
6
ByLayer
62
256
370
-1
100
AcDbLine
10
465
20
-3659
11
465
21
6341
0
LINE
5
7E
100
AcDbEntity
8
furniture
6
ByLayer
62
256
370
-1
100
AcDbLine
10
0
20
890
11
30
21
890
0
LINE
5
7F
100
AcDbEntity
8
furniture
6
ByLayer
62
256
370
-1
100
AcDbLine
10
0
20
1340
11
0
21
1880
0
LINE
5
80
100
AcDbEntity
8
furniture
6
ByLayer
62
256
370
-1
100
AcDbLine
10
0
20
1341
11
0
21
1880
0
LINE
5
81
100
AcDbEntity
8
furniture
6
ByLayer
62
256
370
-1
100
AcDbLine
10
0
20
1881
11
0
21
1340
0
LINE
5
82
100
AcDbEntity
8
furniture
6
ByLayer
62
256
370
-1
100
AcDbLine
10
0
20
1340
11
465
21
1340
0
LINE
5
83
100
AcDbEntity
8
furniture
6
ByLayer
62
256
370
-1
100
AcDbLine
10
2300
20
890
11
4200
21
590
0
LINE
5
84
100
AcDbEntity
8
furniture
6
ByLayer
62
256
370
-1
100
AcDbLine
10
2300
20
590
11
4200
21
890
0
LINE
5
85
100
AcDbEntity
8
construction
6
ByLayer
62
256
370
-1
100
AcDbLine
10
30
20
-3659
11
30
21
6341
0
DIMENSION
5
86
100
AcDbEntity
8
dimensions
6
ByLayer
62
256
370
-1
100
AcDbDimension
10
4369.20529801
20
590
30
0
11
4350.45529801
21
295
31
0
70
32
71
5
3
Standard
53
0
210
0
220
0
230
1
100
AcDbAlignedDimension
13
4200
23
0
33
0
14
4200
24
590
34
0
50
90
100
AcDbRotatedDimension
0
DIMENSION
5
87
100
AcDbEntity
8
dimensions
6
ByLayer
62
256
370
-1
100
AcDbDimension
10
4375
20
890
30
0
11
4356.25
21
740
31
0
70
32
71
5
3
Standard
53
0
210
0
220
0
230
1
100
AcDbAlignedDimension
13
4200
23
590
33
0
14
4200
24
890
34
0
50
90
100
AcDbRotatedDimension
0
DIMENSION
5
88
100
AcDbEntity
8
dimensions
6
ByLayer
62
256
370
-1
100
AcDbDimension
10
4380.79470199
20
1920
30
0
11
4362.04470199
21
1405
31
0
70
32
71
5
3
Standard
53
0
210
0
220
0
230
1
100
AcDbAlignedDimension
13
4200
23
890
33
0
14
4200
24
1920
34
0
50
90
100
AcDbRotatedDimension
0
LINE
5
89
100
AcDbEntity
8
furniture
6
ByLayer
62
256
370
-1
100
AcDbLine
10
2300
20
0
11
2300
21
1920
0
LINE
5
8A
100
AcDbEntity
8
0
6
ByLayer
62
256
370
-1
100
AcDbLine
10
0
20
0
11
1398
21
0
0
LINE
5
8B
100
AcDbEntity
8
0
6
ByLayer
62
256
370
-1
100
AcDbLine
10
1398
20
0
11
1398
21
1920
0
LINE
5
8C
100
AcDbEntity
8
0
6
ByLayer
62
256
370
-1
100
AcDbLine
10
0
20
1920
11
1398
21
1920
0
LINE
5
8D
100
AcDbEntity
8
furniture
6
ByLayer
62
256
370
-1
100
AcDbLine
10
933
20
1341
11
933
21
1881
0
LINE
5
8E
100
AcDbEntity
8
furniture
6
ByLayer
62
256
370
-1
100
AcDbLine
10
933
20
1880
11
933
21
1341
0
LINE
5
8F
100
AcDbEntity
8
furniture
6
ByLayer
62
256
370
-1
100
AcDbLine
10
933
20
1340
11
933
21
1881
0
LINE
5
90
100
AcDbEntity
8
furniture
6
ByLayer
62
256
370
-1
100
AcDbLine
10
1368
20
1341
11
1368
21
1880
0
LINE
5
91
100
AcDbEntity
8
furniture
6
ByLayer
62
256
370
-1
100
AcDbLine
10
933
20
1880
11
1368
21
1880
0
LINE
5
92
100
AcDbEntity
8
furniture
6
ByLayer
62
256
370
-1
100
AcDbLine
10
1368
20
890
11
1368
21
740
0
LINE
5
93
100
AcDbEntity
8
furniture
6
ByLayer
62
256
370
-1
100
AcDbLine
10
1368
20
740
11
933
21
740
0
LINE
5
94
100
AcDbEntity
8
furniture
6
ByLayer
62
256
370
-1
100
AcDbLine
10
933
20
740
11
933
21
890
0
LINE
5
95
100
AcDbEntity
8
furniture
6
ByLayer
62
256
370
-1
100
AcDbLine
10
933
20
740
11
468
21
740
0
LINE
5
96
100
AcDbEntity
8
furniture
6
ByLayer
62
256
370
-1
100
AcDbLine
10
468
20
740
11
468
21
890
0
LINE
5
97
100
AcDbEntity
8
construction
6
ByLayer
62
256
370
-1
100
AcDbLine
10
-4532
20
740
11
5468
21
740
0
LINE
5
98
100
AcDbEntity
8
furniture
6
ByLayer
62
256
370
-1
100
AcDbLine
10
930
20
740
11
930
21
0
0
LINE
5
99
100
AcDbEntity
8
furniture
6
ByLayer
62
256
370
-1
100
AcDbLine
10
930
20
0
11
0
21
0
0
LINE
5
9A
100
AcDbEntity
8
furniture
6
ByLayer
62
256
370
-1
100
AcDbLine
10
0
20
0
11
0
21
740
0
LINE
5
9B
100
AcDbEntity
8
furniture
6
ByLayer
62
256
370
-1
100
AcDbLine
10
0
20
740
11
468
21
740
0
LINE
5
9C
100
AcDbEntity
8
furniture
6
ByLayer
62
256
370
-1
100
AcDbLine
10
468
20
740
11
465
21
0
0
DIMENSION
5
9D
100
AcDbEntity
8
dimensions
6
ByLayer
62
256
370
-1
100
AcDbDimension
10
930
20
-93.2652576681
30
0
11
697.5
21
-74.5152576681
31
0
70
32
71
5
3
Standard
53
0
210
0
220
0
230
1
100
AcDbAlignedDimension
13
465
23
0
33
0
14
930
24
0
34
0
100
AcDbRotatedDimension
0
DIMENSION
5
9E
100
AcDbEntity
8
dimensions
6
ByLayer
62
256
370
-1
100
AcDbDimension
10
-5.99639246193e-15
20
-97.9285205515
30
0
11
232.5
21
-79.1785205515
31
0
70
32
71
5
3
Standard
53
0
210
0
220
0
230
1
100
AcDbAlignedDimension
13
465
23
0
33
0
14
0
24
0
34
0
100
AcDbRotatedDimension
0
DIMENSION
5
9F
100
AcDbEntity
8
dimensions
6
ByLayer
62
256
370
-1
100
AcDbDimension
10
-125.908097852
20
1.54192949021e-14
30
0
11
-144.658097852
21
370
31
0
70
32
71
5
3
Standard
53
0
210
0
220
0
230
1
100
AcDbAlignedDimension
13
0
23
740
33
0
14
0
24
0
34
0
50
90
100
AcDbRotatedDimension
0
MTEXT
5
A0
100
AcDbEntity
8
dimensions
6
ByLayer
62
256
370
-1
100
AcDbMText
10
153.887675152
20
415.030396623
30
0
40
30
41
176.666682095
71
1
72
1
1
batteries
7

210
0
220
0
230
1
50
0
73
2
44
1
0
MTEXT
5
A1
100
AcDbEntity
8
dimensions
6
ByLayer
62
256
370
-1
100
AcDbMText
10
648.193540793
20
419.693659506
30
0
40
30
41
110
71
1
72
1
1
fridge
7

210
0
220
0
230
1
50
0
73
2
44
1
0
LINE
5
A2
100
AcDbEntity
8
furniture
6
ByLayer
62
256
370
-1
100
AcDbLine
10
465
20
1340
11
465
21
1920
0
MTEXT
5
A3
100
AcDbEntity
8
dimensions
6
ByLayer
62
256
370
-1
100
AcDbMText
10
177.203989569
20
1627.47874631
30
0
40
30
41
116.666682095
71
1
72
1
1
comms
7

210
0
220
0
230
1
50
0
73
2
44
1
0
MTEXT
5
A4
100
AcDbEntity
8
dimensions
6
ByLayer
62
256
370
-1
100
AcDbMText
10
648.193540793
20
848.71384478
30
0
40
30
41
103.344762494
71
1
72
1
1
stove\P
7

210
0
220
0
230
1
50
0
73
2
44
1
0
MTEXT
5
A5
100
AcDbEntity
8
dimensions
6
ByLayer
62
256
370
-1
100
AcDbMText
10
1123.8463549
20
834.724056129
30
0
40
30
41
70.0114291607
71
1
72
1
1
sink
7

210
0
220
0
230
1
50
0
73
2
44
1
0
MTEXT
5
A6
100
AcDbEntity
8
dimensions
6
ByLayer
62
256
370
-1
100
AcDbMText
10
1035.24436012
20
1664.78484938
30
0
40
30
41
255.833333333
71
1
72
1
1
draining rack\Pdish storage
7

210
0
220
0
230
1
50
0
73
2
44
1
0
DIMENSION
5
A7
100
AcDbEntity
8
dimensions
6
ByLayer
62
256
370
-1
100
AcDbDimension
10
-116.581572085
20
890
30
0
11
-135.331572085
21
815
31
0
70
32
71
5
3
Standard
53
0
210
0
220
0
230
1
100
AcDbAlignedDimension
13
0
23
740
33
0
14
15
24
890
34
0
50
90
100
AcDbRotatedDimension
0
DIMENSION
5
A8
100
AcDbEntity
8
dimensions
6
ByLayer
62
256
370
-1
100
AcDbDimension
10
-107.255046318
20
1340
30
0
11
-126.005046318
21
1115
31
0
70
32
71
5
3
Standard
53
0
210
0
220
0
230
1
100
AcDbAlignedDimension
13
0
23
890
33
0
14
0
24
1340
34
0
50
90
100
AcDbRotatedDimension
0
DIMENSION
5
A9
100
AcDbEntity
8
dimensions
6
ByLayer
62
256
370
-1
100
AcDbDimension
10
-107.441576834
20
1920
30
0
11
-126.191576834
21
1630
31
0
70
32
71
5
3
Standard
53
0
210
0
220
0
230
1
100
AcDbAlignedDimension
13
0
23
1340
33
0
14
0
24
1920
34
0
50
90
100
AcDbRotatedDimension
0
LINE
5
AA
100
AcDbEntity
8
furniture
6
ByLayer
62
256
370
-1
100
AcDbLine
10
0
20
1340
11
1398
21
1340
0
LINE
5
AB
100
AcDbEntity
8
furniture
6
ByLayer
62
256
370
-1
100
AcDbLine
10
1398
20
890
11
2300
21
890
0
LINE
5
AC
100
AcDbEntity
8
furniture
6
ByLayer
62
256
370
-1
100
AcDbLine
10
2300
20
890
11
1849
21
890
0
LINE
5
AD
100
AcDbEntity
8
furniture
6
ByLayer
62
256
370
-1
100
AcDbLine
10
1398
20
1920
11
2300
21
1920
0
LINE
5
AE
100
AcDbEntity
8
furniture
6
ByLayer
62
256
370
-1
100
AcDbLine
10
1849
20
1920
11
1849
21
890
0
MTEXT
5
AF
100
AcDbEntity
8
dimensions
6
ByLayer
62
256
370
-1
100
AcDbMText
10
1884.06555944
20
1678.71781454
30
0
40
30
41
345.84480878
71
1
72
1
1
shelves accessed\Pfrom bed
7

210
0
220
0
230
1
50
0
73
2
44
1
0
MTEXT
5
B0
100
AcDbEntity
8
dimensions
6
ByLayer
62
256
370
-1
100
AcDbMText
10
1915.10836306
20
1453.87807667
30
0
40
30
41
355.833333333
71
1
72
1
1
coat hooks/\Pwhiteboard paint/\Psomething
7

210
0
220
0
230
1
50
0
73
2
44
1
0
MTEXT
5
B1
100
AcDbEntity
8
dimensions
6
ByLayer
62
256
370
-1
100
AcDbMText
10
2414.4402818
20
1596.25786073
30
0
40
30
41
113.333333333
71
1
72
1
1
mirror
7

210
0
220
0
230
1
50
0
73
2
44
1
0
MTEXT
5
B2
100
AcDbEntity
8
dimensions
6
ByLayer
62
256
370
-1
100
AcDbMText
10
3368.98643973
20
1572.19367187
30
0
40
30
41
106.666682095
71
1
72
1
1
books
7

210
0
220
0
230
1
50
0
73
2
44
1
0
ENDBLK
5
53
330
51
100
AcDbEntity
8
0
100
AcDbBlockEnd
0
BLOCK
5
55
330
54
100
AcDbEntity
8
0
100
AcDbBlockBegin
2
Level 1
70
0
10
0
20
0
3
Level 1
1

0
LINE
5
B3
100
AcDbEntity
8
0
6
ByLayer
62
256
370
-1
100
AcDbLine
10
4200
20
1520
11
0
21
1520
0
LINE
5
B4
100
AcDbEntity
8
0
6
ByLayer
62
256
370
-1
100
AcDbLine
10
0
20
0
11
4200
21
-4.54747350886e-13
0
LINE
5
B5
100
AcDbEntity
8
0
6
ByLayer
62
256
370
-1
100
AcDbLine
10
0
20
1520
11
0
21
0
0
LINE
5
B6
100
AcDbEntity
8
0
6
ByLayer
62
256
370
-1
100
AcDbLine
10
4200
20
-4.54747350886e-13
11
4200
21
1520
0
ENDBLK
5
56
330
54
100
AcDbEntity
8
0
100
AcDbBlockEnd
0
BLOCK
5
58
330
57
100
AcDbEntity
8
0
100
AcDbBlockBegin
2
Level 0
70
0
10
0
20
0
3
Level 0
1

0
LINE
5
B7
100
AcDbEntity
8
0
6
ByLayer
62
256
370
-1
100
AcDbLine
10
4200
20
-2.57175827821e-13
11
4200
21
1520
0
LINE
5
B8
100
AcDbEntity
8
0
6
ByLayer
62
256
370
-1
100
AcDbLine
10
4200
20
1520
11
0
21
1520
0
LINE
5
B9
100
AcDbEntity
8
0
6
ByLayer
62
256
370
-1
100
AcDbLine
10
0
20
1520
11
0
21
0
0
LINE
5
BA
100
AcDbEntity
8
0
6
ByLayer
62
256
370
-1
100
AcDbLine
10
0
20
0
11
4200
21
-2.57175827821e-13
0
LINE
5
BB
100
AcDbEntity
8
0
6
ByLayer
62
256
370
-1
100
AcDbLine
10
4200
20
-2.57175827821e-13
11
3400
21
-2.08189955855e-13
0
LINE
5
BC
100
AcDbEntity
8
0
6
ByLayer
62
256
370
-1
100
AcDbLine
10
3400
20
-2.08189955855e-13
11
3400
21
120
0
LINE
5
BD
100
AcDbEntity
8
0
6
ByLayer
62
256
370
-1
100
AcDbLine
10
3400
20
120
11
3400
21
120
0
LINE
5
BE
100
AcDbEntity
8
0
6
ByLayer
62
256
370
-1
100
AcDbLine
10
3400
20
120
11
2600
21
120
0
LINE
5
BF
100
AcDbEntity
8
0
6
ByLayer
62
256
370
-1
100
AcDbLine
10
2600
20
120
11
2600
21
-1.59204083889e-13
0
LINE
5
C0
100
AcDbEntity
8
0
6
ByLayer
62
256
370
-1
100
AcDbLine
10
3400
20
1520
11
3400
21
1400
0
LINE
5
C1
100
AcDbEntity
8
0
6
ByLayer
62
256
370
-1
100
AcDbLine
10
3400
20
1400
11
2600
21
1400
0
LINE
5
C2
100
AcDbEntity
8
0
6
ByLayer
62
256
370
-1
100
AcDbLine
10
2600
20
1400
11
2600
21
1520
0
LINE
5
C3
100
AcDbEntity
8
0
6
ByLayer
62
256
370
-1
100
AcDbLine
10
4200
20
-2.57175827821e-13
11
4200
21
-2.57175827821e-13
0
LINE
5
C4
100
AcDbEntity
8
0
6
ByLayer
62
256
370
-1
100
AcDbLine
10
4200
20
-2.57175827821e-13
11
2300
21
-1.40834381902e-13
0
LINE
5
C5
100
AcDbEntity
8
roough sketches
6
ByLayer
62
256
370
-1
100
AcDbLine
10
1300
20
-7.96020419446e-14
11
1300
21
-7.96020419446e-14
0
LINE
5
C6
100
AcDbEntity
8
roough sketches
6
ByLayer
62
256
370
-1
100
AcDbLine
10
1300
20
-7.96020419446e-14
11
1300
21
-7.96020419446e-14
0
LINE
5
C7
100
AcDbEntity
8
roough sketches
6
ByLayer
62
256
370
-1
100
AcDbLine
10
1300
20
-7.96020419446e-14
11
1300
21
-7.96020419446e-14
0
LINE
5
C8
100
AcDbEntity
8
roough sketches
6
ByLayer
62
256
370
-1
100
AcDbLine
10
1300
20
-7.96020419446e-14
11
1300
21
-7.96020419446e-14
0
LINE
5
C9
100
AcDbEntity
8
roough sketches
6
ByLayer
62
256
370
-1
100
AcDbLine
10
1300
20
-7.96020419446e-14
11
1300
21
-7.96020419446e-14
0
LINE
5
CA
100
AcDbEntity
8
roough sketches
6
ByLayer
62
256
370
-1
100
AcDbLine
10
1300
20
-7.96020419446e-14
11
1300
21
-7.96020419446e-14
0
LINE
5
CB
100
AcDbEntity
8
roough sketches
6
ByLayer
62
256
370
-1
100
AcDbLine
10
1300
20
-7.96020419446e-14
11
1300
21
-7.96020419446e-14
0
LINE
5
CC
100
AcDbEntity
8
roough sketches
6
ByLayer
62
256
370
-1
100
AcDbLine
10
1300
20
-7.96020419446e-14
11
1300
21
-7.96020419446e-14
0
LINE
5
CD
100
AcDbEntity
8
roough sketches
6
ByLayer
62
256
370
-1
100
AcDbLine
10
1300
20
-7.96020419446e-14
11
1300
21
-7.96020419446e-14
0
LINE
5
CE
100
AcDbEntity
8
roough sketches
6
ByLayer
62
256
370
-1
100
AcDbLine
10
1300
20
-7.96020419446e-14
11
1300
21
-7.96020419446e-14
0
LINE
5
CF
100
AcDbEntity
8
roough sketches
6
ByLayer
62
256
370
-1
100
AcDbLine
10
1300
20
-7.96020419446e-14
11
1300
21
-7.96020419446e-14
0
LINE
5
D0
100
AcDbEntity
8
roough sketches
6
ByLayer
62
256
370
-1
100
AcDbLine
10
1300
20
-7.96020419446e-14
11
1300
21
-7.96020419446e-14
0
LINE
5
D1
100
AcDbEntity
8
roough sketches
6
ByLayer
62
256
370
-1
100
AcDbLine
10
771.631299958
20
-8.881784197
11
771.631299958
21
515.143483426
0
LINE
5
D2
100
AcDbEntity
8
roough sketches
6
ByLayer
62
256
370
-1
100
AcDbLine
10
771.631299958
20
515.143483426
11
1544.3465251
21
515.143483426
0
LINE
5
D3
100
AcDbEntity
8
roough sketches
6
ByLayer
62
256
370
-1
100
AcDbLine
10
1544.3465251
20
515.143483426
11
1544.3465251
21
-8.881784197
0
LINE
5
D4
100
AcDbEntity
8
roough sketches
6
ByLayer
62
256
370
-1
100
AcDbLine
10
1544.3465251
20
-8.881784197
11
771.631299958
21
-8.881784197
0
LINE
5
D5
100
AcDbEntity
8
roough sketches
6
ByLayer
62
256
370
-1
100
AcDbLine
10
4200
20
-2.57175827821e-13
11
4200
21
1520
0
LINE
5
D6
100
AcDbEntity
8
roough sketches
6
ByLayer
62
256
370
-1
100
AcDbLine
10
4200
20
1520
11
2300
21
1520
0
LINE
5
D7
100
AcDbEntity
8
roough sketches
6
ByLayer
62
256
370
-1
100
AcDbLine
10
2300
20
1520
11
2300
21
-1.40834381902e-13
0
LINE
5
D8
100
AcDbEntity
8
roough sketches
6
ByLayer
62
256
370
-1
100
AcDbLine
10
2300
20
-1.40834381902e-13
11
4200
21
-2.57175827821e-13
0
LINE
5
D9
100
AcDbEntity
8
roough sketches
6
ByLayer
62
256
370
-1
100
AcDbLine
10
0
20
1520
11
0
21
1080
0
LINE
5
DA
100
AcDbEntity
8
roough sketches
6
ByLayer
62
256
370
-1
100
AcDbLine
10
0
20
1080
11
2300
21
1080
0
LINE
5
DB
100
AcDbEntity
8
furniture
6
ByLayer
62
256
370
-1
100
AcDbLine
10
0
20
1080
11
2300
21
1080
0
LINE
5
DC
100
AcDbEntity
8
furniture
6
ByLayer
62
256
370
-1
100
AcDbLine
10
2300
20
1520
11
2300
21
-1.40834381902e-13
0
LINE
5
DD
100
AcDbEntity
8
Door
6
ByLayer
62
256
370
-1
100
AcDbLine
10
0
20
0
11
1030
21
0
0
LINE
5
DE
100
AcDbEntity
8
furniture
6
ByLayer
62
256
370
-1
100
AcDbLine
10
1357.709932
20
-8.31357561196e-14
11
1957.709932
21
-8.31357561196e-14
0
LINE
5
DF
100
AcDbEntity
8
furniture
6
ByLayer
62
256
370
-1
100
AcDbLine
10
1070
20
20
11
717
21
20
0
LINE
5
E0
100
AcDbEntity
8
furniture
6
ByLayer
62
256
370
-1
100
AcDbLine
10
717
20
230
11
1070
21
230
0
LINE
5
E1
100
AcDbEntity
8
furniture
6
ByLayer
62
256
370
-1
100
AcDbLine
10
1070
20
230
11
1070
21
0
0
ELLIPSE
5
E2
100
AcDbEntity
8
furniture
6
ByLayer
62
256
370
-1
100
AcDbEllipse
10
717
20
377.218644627
30
0
11
430
21
0
31
0
40
0.332007437405
41
4.71238898038
42
1.57079618048
0
LINE
5
E3
100
AcDbEntity
8
furniture
6
ByLayer
62
256
370
-1
100
AcDbLine
10
717
20
519.981842711
11
1070
21
519.981842711
0
LINE
5
E4
100
AcDbEntity
8
furniture
6
ByLayer
62
256
370
-1
100
AcDbLine
10
1070
20
519.981842711
11
1070
21
230
0
LINE
5
E5
100
AcDbEntity
8
furniture
6
ByLayer
62
256
370
-1
100
AcDbLine
10
717
20
519.981842711
11
717
21
-4.14542941511e-14
0
LINE
5
E6
100
AcDbEntity
8
furniture
6
ByLayer
62
256
370
-1
100
AcDbLine
10
717
20
519.981842711
11
1397.709932
21
519.981842711
0
LINE
5
E7
100
AcDbEntity
8
furniture
6
DASHED2
62
256
370
-1
100
AcDbLine
10
1397.709932
20
519.981842711
11
1397.709932
21
-8.31357561196e-14
0
LINE
5
E8
100
AcDbEntity
8
furniture
6
ByLayer
62
256
370
-1
100
AcDbLine
10
1397.709932
20
-8.55850497179e-14
11
1758.7249403
21
374.231586763
0
ARC
5
E9
100
AcDbEntity
8
furniture
6
ByLayer
62
256
370
-1
100
AcDbCircle
10
1397.709932
20
-8.31357561196e-14
40
519.981842711
100
AcDbArc
50
46.0298213192
51
90
0
LINE
5
EA
100
AcDbEntity
8
construction
6
ByLayer
62
256
370
-1
100
AcDbLine
10
480
20
1120
11
930
21
1120
0
LINE
5
EB
100
AcDbEntity
8
furniture
6
ByLayer
62
256
370
-1
100
AcDbLine
10
1380
20
1490
11
1380
21
1120
0
LINE
5
EC
100
AcDbEntity
8
furniture
6
ByLayer
62
256
370
-1
100
AcDbLine
10
1380
20
1120
11
480
21
1120
0
LINE
5
ED
100
AcDbEntity
8
furniture
6
ByLayer
62
256
370
-1
100
AcDbLine
10
480
20
1120
11
480
21
1490
0
LINE
5
EE
100
AcDbEntity
8
furniture
6
ByLayer
62
256
370
-1
100
AcDbLine
10
480
20
1490
11
1380
21
1490
0
LINE
5
EF
100
AcDbEntity
8
furniture
6
ByLayer
62
256
370
-1
100
AcDbLine
10
930
20
1490
11
930
21
1120
0
LINE
5
F0
100
AcDbEntity
8
construction
6
ByLayer
62
256
370
-1
100
AcDbLine
10
930
20
1490
11
480
21
1490
0
ENDBLK
5
59
330
57
100
AcDbEntity
8
0
100
AcDbBlockEnd
0
ENDSEC
0
SECTION
2
ENTITIES
0
LINE
5
F1
100
AcDbEntity
8
construction
6
ByLayer
62
256
370
-1
100
AcDbLine
10
0
20
0
11
6.12323399574e-13
21
10000
0
LINE
5
F2
100
AcDbEntity
8
construction
6
ByLayer
62
256
370
-1
100
AcDbLine
10
2300
20
0
11
2300
21
10000
0
LINE
5
F3
100
AcDbEntity
8
construction
6
ByLayer
62
256
370
-1
100
AcDbLine
10
4200
20
0
11
4200
21
10000
0
LINE
5
F4
100
AcDbEntity
8
construction
6
ByLayer
62
256
370
-1
100
AcDbLine
10
930
20
0
11
930
21
10000
0
LINE
5
F5
100
AcDbEntity
8
construction
6
ByLayer
62
256
370
-1
100
AcDbLine
10
480
20
0
11
480
21
10000
0
LINE
5
F6
100
AcDbEntity
8
construction
6
ByLayer
62
256
370
-1
100
AcDbLine
10
-2700
20
1.16341445919e-13
11
7300
21
1.16341445919e-13
0
INSERT
5
F7
100
AcDbEntity
8
0
6
ByLayer
62
256
370
-1
100
AcDbBlockReference
2
Elevation
10
3.01326874411e-13
20
6841.04130956
30
0
41
1
42
1
43
0
50
0
70
1
71
1
44
0
45
0
0
INSERT
5
F8
100
AcDbEntity
8
0
6
ByLayer
62
256
370
-1
100
AcDbBlockReference
2
Level 1
10
0
20
2900
30
0
41
1
42
1
43
0
50
0
70
1
71
1
44
0
45
0
0
INSERT
5
F9
100
AcDbEntity
8
0
6
ByLayer
62
256
370
-1
100
AcDbBlockReference
2
Level 0
10
0
20
2.57175827821e-13
30
0
41
1
42
1
43
0
50
0
70
1
71
1
44
0
45
0
0
LINE
5
FA
100
AcDbEntity
8
furniture
6
ByLayer
62
256
370
-1
100
AcDbLine
10
3.01326874411e-13
20
6841.04130956
11
3.01326874411e-13
21
7731.04130956
0
MTEXT
5
FB
100
AcDbEntity
8
furniture
6
ByLayer
62
256
370
-1
100
AcDbMText
10
-5034.73830922
20
8117.60343334
30
0
40
1
41
0
71
1
72
1
1

7
STANDARD
210
0
220
0
230
1
50
0
73
2
44
1
0
MTEXT
5
FC
100
AcDbEntity
8
furniture
6
ByLayer
62
256
370
-1
100
AcDbMText
10
-5673.2015006
20
8263.53787708
30
0
40
1
41
0
71
1
72
1
1

7
STANDARD
210
0
220
0
230
1
50
0
73
2
44
1
0
MTEXT
5
FD
100
AcDbEntity
8
furniture
6
ByLayer
62
256
370
-1
100
AcDbMText
10
-5673.2015006
20
8263.53787708
30
0
40
1
41
0
71
1
72
1
1

7
STANDARD
210
0
220
0
230
1
50
0
73
2
44
1
0
MTEXT
5
FE
100
AcDbEntity
8
furniture
6
ByLayer
62
256
370
-1
100
AcDbMText
10
-5034.73830922
20
8117.60343334
30
0
40
1
41
0
71
1
72
1
1

7
STANDARD
210
0
220
0
230
1
50
0
73
2
44
1
0
MTEXT
5
FF
100
AcDbEntity
8
furniture
6
ByLayer
62
256
370
-1
100
AcDbMText
10
-5034.73830922
20
8117.60343334
30
0
40
1
41
0
71
1
72
1
1

7
STANDARD
210
0
220
0
230
1
50
0
73
2
44
1
0
DIMENSION
5
100
100
AcDbEntity
8
construction
6
ByLayer
62
256
370
-1
100
AcDbDimension
2
*D1
10
667.916341147
20
-50.9261726388
30
0
11
667.916341147
21
-32.1761726388
31
0
70
32
71
5
72
0
3
Standard
53
0
210
0
220
0
230
1
100
AcDbAlignedDimension
13
667.916341147
23
-50.9261726388
33
0
14
667.916341147
24
-50.9261726388
34
0
100
AcDbRotatedDimension
0
LINE
5
101
100
AcDbEntity
8
construction
6
ByLayer
62
256
370
-1
100
AcDbLine
10
1397.70995704
20
519.981842711
11
1397.70995704
21
10519.9818427
0
LINE
5
102
100
AcDbEntity
8
construction
6
ByLayer
62
256
370
-1
100
AcDbLine
10
1397.709932
20
519.981842711
11
1397.709932
21
10519.9818427
0
LINE
5
103
100
AcDbEntity
8
construction
6
ByLayer
62
256
370
-1
100
AcDbLine
10
1397.70990696
20
519.981842711
11
1397.70990696
21
10519.9818427
0
DIMENSION
5
104
100
AcDbEntity
8
dimensions
6
ByLayer
62
256
370
-1
100
AcDbDimension
2
*D2
10
1397.70990696
20
6612.58151503
30
0
11
698.854953482
21
6631.33151503
31
0
70
32
71
5
3
Standard
53
0
210
0
220
0
230
1
100
AcDbAlignedDimension
13
3.01326874411e-13
23
6841.04130956
33
0
14
1397.70990696
24
6841.04130956
34
0
100
AcDbRotatedDimension
0
ENDSEC
0
SECTION
2
OBJECTS
0
DICTIONARY
5
C
330
0
100
AcDbDictionary
281
1
3
ACAD_GROUP
350
D
0
DICTIONARY
5
D
330
C
100
AcDbDictionary
281
1
0
ENDSEC
0
EOF
